<svg xmlns="http://www.w3.org/2000/svg" xmlns:xlink="http://www.w3.org/1999/xlink" width="393.833" height="324.667" viewBox="0 0 393.833 324.667">
  <defs>
    <linearGradient id="linear-gradient" x1="-120.95" y1="-21.642" x2="-119.113" y2="-21.642" gradientUnits="objectBoundingBox">
      <stop offset="0" stop-color="#4b45bd"/>
      <stop offset="1" stop-color="#58caea"/>
    </linearGradient>
    <linearGradient id="linear-gradient-2" y1="0.5" x2="1" y2="0.5" gradientUnits="objectBoundingBox">
      <stop offset="0" stop-color="#f87b58"/>
      <stop offset="0.41" stop-color="#f89453"/>
      <stop offset="0.71" stop-color="#f8c548"/>
      <stop offset="1" stop-color="#f89c51"/>
    </linearGradient>
    <linearGradient id="linear-gradient-3" x1="0.095" y1="0.696" x2="0.872" y2="0.696" xlink:href="#linear-gradient"/>
    <clipPath id="clip-path">
      <path id="Path_315" data-name="Path 315" d="M366.259,321.48c-6.761.735-9.7,1.411-10.759,1.741a59.347,59.347,0,0,1-3.913,6.415c-3.507,4.539-5.181,10.294-7.37,10.463-2.857.22-9.457-9.965-12.855-12.39-2.2-1.572-2.426-2.24-3.643-2.781l-19.219.9a10.81,10.81,0,0,0-7.987,4.733c-8.815,13.218-28.567,52.4-29.175,62.086-.439,7.066,15.568,17.9,20.056,18.982,1.826.439,5.02-16.954,6.085-18.509l-6.711-2.079a109.3,109.3,0,0,1,7.894-14.368c.845-1.251,8.578-13.21,9.474-17.25a88.029,88.029,0,0,1,.566,11.892c-.194,4.834.964,9.981.964,13.565s2.476,15.027-.144,21.476-6.449,21.374-6.449,21.374l66.151-.355s3.034-24.51,3.989-34.272a77.493,77.493,0,0,1-.2-9c.254-12.145.338-25.744-.186-27.891-.845-3.431,18.881,23.5,23.3,30.874,1.834,3.059-23.327,8.452-25.406,10.835s2.121,9.128,2.121,9.128,43.906-5.341,43.644-12.061-23.529-57.708-33.283-66.591c-6.06-5.527-4.5-3.845-8.2-5.468-2.121-.921-1.842-.989-6.119-1.318" transform="translate(-271.329 -321.48)"/>
    </clipPath>
    <linearGradient id="linear-gradient-4" x1="6.309" y1="7.956" x2="7.147" y2="7.176" gradientUnits="objectBoundingBox">
      <stop offset="0" stop-color="#e5a4ed"/>
      <stop offset="1" stop-color="#7a5bf5"/>
    </linearGradient>
    <clipPath id="clip-path-2">
      <rect id="Rectangle_76" data-name="Rectangle 76" width="114.655" height="34.069"/>
    </clipPath>
    <clipPath id="clip-path-3">
      <rect id="Rectangle_77" data-name="Rectangle 77" width="21.814" height="57.226"/>
    </clipPath>
    <clipPath id="clip-path-4">
      <path id="Path_320" data-name="Path 320" d="M344.84,432.071a3.643,3.643,0,1,0,1.064-2.581,3.651,3.651,0,0,0-1.064,2.581" transform="translate(-344.84 -428.42)"/>
    </clipPath>
    <linearGradient id="linear-gradient-5" x1="-96.607" y1="-26.911" x2="-96.533" y2="-26.911" gradientUnits="objectBoundingBox">
      <stop offset="0" stop-color="#59c2e9"/>
      <stop offset="1" stop-color="#5bd3ef"/>
    </linearGradient>
  </defs>
  <g id="Group_130" data-name="Group 130" transform="translate(-5374.268 -2144.218)">
    <g id="flower" transform="translate(5631.666 2233.942)" opacity="0.15" style="mix-blend-mode: multiply;isolation: isolate">
      <path id="Path_287" data-name="Path 287" d="M1384.507,702.248s-11.508,13.573-2.08,13.948,28.769,11.313,32.471,1.511,11.092-14.7,6.579-15.833-8.631-5.657-18.086-4.9S1384.507,702.248,1384.507,702.248Z" transform="translate(-1320.122 -517.161)" fill="#0dc3f8"/>
      <path id="Path_288" data-name="Path 288" d="M1380.343,608.2s-5.393.582-5.393,7.258,3.466,64.56,16.637,65.7a142.441,142.441,0,0,0,22.1.263c1.934-.187,3.834-6.031,4.159-8.374,1.74-11.5,3.979-39.514,4.471-55.833a14.993,14.993,0,0,0-3.355-8.79C1412.419,602.443,1380.343,608.2,1380.343,608.2Z" transform="translate(-1318.967 -489.188)" fill="#0dc3f8"/>
      <path id="Path_289" data-name="Path 289" d="M1457.786,447.6c-2.08-1.934-4.977.693-3.875,3.425,1.047,2.613,1.775,7.154-2.419,12.021-6.51,7.549-29.989,33.06-29.753,49.462s-4.853,20.977,0,27.223,24.409,6,29.525-7.279,18.093-18.641,17.844-37.635-2.523-27.341-4.853-33.843C1462.812,456.843,1460.511,450.146,1457.786,447.6Z" transform="translate(-1332.675 -440.481)" fill="#0dc3f8"/>
      <path id="Path_290" data-name="Path 290" d="M1423.36,568s2.08-29.733,25.317-42.675c14.558-8.111,15.542-36.263,12.062-42.627" transform="translate(-1333.818 -451.454)" fill="none" stroke="#fff" stroke-linecap="round" stroke-linejoin="round" stroke-width="3"/>
      <path id="Path_291" data-name="Path 291" d="M1427.39,623.76s7.321,29.268-.61,52.443" transform="translate(-1334.867 -494.727)" fill="#0dc3f8"/>
      <path id="Path_292" data-name="Path 292" d="M1434.7,438.267a2.716,2.716,0,0,0-4.159,3.272c1.123,2.5,1.9,6.842-2.593,11.494-6.974,7.223-32.124,31.625-31.889,47.313s0,24.9,5.227,30.876,17.331,1.178,22.786-11.521,23-18.107,22.752-36.291-2.7-26.149-5.192-32.374C1440.086,447.112,1437.611,440.707,1434.7,438.267Z" transform="translate(-1325.442 -437.627)" fill="#0dc3f8"/>
      <path id="Path_293" data-name="Path 293" d="M1408.624,560.906s-8.18-40.45,11.736-64.727c7.965-9.705,19.778-29.2,19.674-38.6" transform="translate(-1328.787 -443.748)" fill="none" stroke="#fff" stroke-linecap="round" stroke-linejoin="round" stroke-width="3"/>
      <path id="Path_294" data-name="Path 294" d="M1357.271,447.6c2.045-1.934,4.936.693,3.847,3.425-1.04,2.613-1.761,7.154,2.4,12.021,6.454,7.549,29.74,33.06,29.511,49.462s0,26.031-4.853,32.284-16.021,1.234-21.095-12.041S1345.8,513.806,1346,494.811s2.5-27.341,4.811-33.843C1352.294,456.843,1354.574,450.146,1357.271,447.6Z" transform="translate(-1310.085 -440.481)" fill="#0dc3f8"/>
      <path id="Path_295" data-name="Path 295" d="M1387.539,565.871s9.372-36.741-9.068-61c-7.376-9.705-19.188-24.1-19.092-33.5" transform="translate(-1314.19 -447.978)" fill="none" stroke="#fff" stroke-linecap="round" stroke-linejoin="round" stroke-width="3"/>
      <path id="Path_296" data-name="Path 296" d="M1326.426,520.258s-19.265.444-29.663-22.96,13-28.124,30.253-15.6,10.163,17.726,30.724,29.31,16.076,34.509,9.705,40.651-18.433,15.6-26.474-9.22S1326.426,520.258,1326.426,520.258Z" transform="translate(-1294.193 -449.075)" fill="#0dc3f8"/>
      <path id="Path_297" data-name="Path 297" d="M1369.6,575.1s1.386-58.488-56.644-74.605" transform="translate(-1299.95 -456.912)" fill="none" stroke="#fff" stroke-linecap="round" stroke-linejoin="round" stroke-width="3"/>
      <path id="Path_298" data-name="Path 298" d="M1382.73,608.244s23.618-3.8,32.845-1.809-16.277,4.34-16.277,4.34S1387.146,611.315,1382.73,608.244Z" transform="translate(-1321.354 -489.236)" fill="#0dc3f8"/>
    </g>
    <path id="Path_299" data-name="Path 299" d="M955.119,573.486s-26.62-21-31.119-41.594,5.248-34.869,19.494-37.115,22.877-9.012,72.734,7.875,107.229-13.123,107.229-13.123,46.883-21.566,70.016-16.3c26.343,5.983,31.944,21.927,24.825,50.425s-31.375,50.051-31.375,50.051Z" transform="translate(4451.376 1785.648)" fill="#0dc3f8" opacity="0.15" style="mix-blend-mode: multiply;isolation: isolate"/>
    <path id="Path_300" data-name="Path 300" d="M949.773,615a4.964,4.964,0,0,0-4.853,4.159c-.693,4.159.693,17.331,2.773,21.49s11.833,3.951,11.833,3.951l237.729-.485s7.9.083,9.705-6.239c1.449-5.081,3.563-10.149,3.716-13.657a8.041,8.041,0,0,0-6.891-8.319,68.876,68.876,0,0,0-7.778-.513C1177.977,615.381,949.773,615,949.773,615Z" transform="translate(4444.674 1741.902)" fill="#0dc3f8" opacity="0.15" style="mix-blend-mode: multiply;isolation: isolate"/>
    <path id="Path_301" data-name="Path 301" d="M294.44,483.681l15.944-34.661h12.478l-16.638,34.661Z" transform="translate(5088.916 1937.691)" fill="#0dc3f8" opacity="0.15" style="mix-blend-mode: multiply;isolation: isolate"/>
    <path id="Path_302" data-name="Path 302" d="M648.44,449.02,663,484.375l10.4-.693L659.532,449.02Z" transform="translate(4980.318 1937.691)" fill="#0dc3f8" opacity="0.15" style="mix-blend-mode: multiply;isolation: isolate"/>
    <path id="Path_303" data-name="Path 303" d="M965,580.724s-21.913-16.908-22.939-23.944c-1.338-9.116,6.932-22.738,38.973-16.707s88.539,22.35,119.159,14,69.163-43.278,71.936-45.122,35.535-17.982,42.98,6.607-22.488,64.907-22.488,64.907Z" transform="translate(4445.538 1776.552)" fill="#0dc3f8" opacity="0.15" style="mix-blend-mode: multiply;isolation: isolate"/>
    <g id="Group_121" data-name="Group 121" transform="translate(5501.478 2432.423)">
      <path id="Path_309" data-name="Path 309" d="M398.375,589.937l-11.308.1s-4.9,8.866-7.336,13.607c-.152.3-.592,1.065-.9,1.614a12.1,12.1,0,0,0-.845,2.586c-.9,4.64-.33,8.874,2.755,11.832,3.381,3.237,5.916,6.077,11.19,2.738s6.651-5.916,6.761-13.9-.279-18.594-.279-18.594" transform="translate(-329.009 -589.92)" fill="#4b44be"/>
      <path id="Path_310" data-name="Path 310" d="M331.891,590.628l-10.319,4.606s-.955,10.091-1.285,15.407c0,.346-.118,1.217-.177,1.842a12.076,12.076,0,0,0,.245,2.713c1.031,4.606,3.245,8.266,7.252,9.736,4.395,1.606,7.86,3.195,11.351-1.969s3.719-8.105.617-15.441-7.683-16.9-7.683-16.9" transform="translate(-320.106 -590.028)" fill="#4b44be"/>
    </g>
    <path id="Path_311" data-name="Path 311" d="M335.652,288.541l32.387-6.212s2.7-13.523,1.893-15.923-1.572-7.683-6.161-9.3-10.759-14.528-26.149-4.268-7.091,22.481-7.091,22.481Z" transform="translate(5180.104 1895.302)" fill="url(#linear-gradient)"/>
    <path id="Path_312" data-name="Path 312" d="M357.735,263.75s-16.134,6.229-19.8,7.759-5.654,5.958-5.654,5.958-1.809-1.073-1.809,1.986,1.5,9.948,2.595,11.706a94.1,94.1,0,0,1,5.139,9.212c1.488,3.152,1.158,7.9.8,9.652-.676,3.3-15.8,26.378-15.8,26.378l5.6,6.533,6.271,5.536,44.084-3.381s-15.348-30.054-17.749-35.125c-1.082-2.273.068-7.792.7-10.607.575-2.578,1.834-5.815,3.06-6.761s3.381-5.2,3.381-7.04.355-7.666-1.226-6.119c-.423.414-2.535-2.882-3.136-5.637A19.2,19.2,0,0,0,357.735,263.75Z" transform="translate(5180.892 1893.005)" fill="url(#linear-gradient-2)"/>
    <path id="Path_313" data-name="Path 313" d="M285.6,457.366S272.25,469.35,272.25,474.413s2.3,18.425,6.677,26.259,31.271,67.394,34.508,71.983c.558.794,12.06-2.4,12.06-2.4s-5.333-24.434-6.254-29.961S305,502.058,305,498.829s2.3-7.835,9.677-9.212,23.031-3.229,28.558-1.386,29.378,1.606,33.6,6.913c2.679,3.423,0,7.311-2.764,20.284s-.921,30.891-3.22,36.427-2.147,17.453-1.014,17.529c3.085.194,11.435.9,12.306.287,1.53-1.09,10.37-20.833,11.892-24.189,2.4-5.274,9.981-34.17,10.9-41.54s5.527-20.732,4.606-24.417-21.188-26.259-36.393-29.488-62.2-6.9-67.723-3.22S285.6,457.366,285.6,457.366Z" transform="translate(5188.782 1864.898)" fill="url(#linear-gradient-3)"/>
    <path id="Path_314" data-name="Path 314" d="M329.179,573.193S325,552.52,323.8,547.593c-1.361-5.62-12.179-30.975-13.785-39.478-1.555-8.19-6.212,2.983-4.826,10.818s9.212,22.11,9.669,29.023S329.179,573.193,329.179,573.193Z" transform="translate(5183.72 1855.613)" opacity="0.1"/>
    <g id="Group_122" data-name="Group 122" transform="translate(5460.253 2205.546)" clip-path="url(#clip-path)">
      <rect id="Rectangle_75" data-name="Rectangle 75" width="145.851" height="108.942" transform="translate(-0.431 -2.73)" fill="url(#linear-gradient-4)"/>
    </g>
    <path id="Path_316" data-name="Path 316" d="M341.336,321.88c-.778-1.023-3.026.541-1-2.535,3.381-5.147.38-13.024.38-13.024s1.69,3.583,7.607,3.1,6.922-2.223.406,4.665-8.4,6.677-7.412,7.826" transform="translate(5178.367 1886.414)" opacity="0.07"/>
    <g id="Group_127" data-name="Group 127" transform="translate(5467.59 2214.945)">
      <g id="Group_124" data-name="Group 124" transform="translate(0 111.765)" opacity="0.07">
        <g id="Group_123" data-name="Group 123" clip-path="url(#clip-path-2)">
          <path id="Path_317" data-name="Path 317" d="M295.41,464.865l92.622-1.445s-19.439,10.057-16.574,15.407c3.761,7.049-3.786,14.943-14.419,13.641-8.993-1.1-10.852-2.941-16.43-2.468-14.461,1.225-24.4.38-25.837-1.817-11.925-18.315-19.337-23.318-19.337-23.318" transform="translate(-282.394 -464.62)"/>
        </g>
      </g>
      <g id="Group_126" data-name="Group 126" transform="translate(28.533)" opacity="0.07">
        <g id="Group_125" data-name="Group 125" clip-path="url(#clip-path-3)">
          <path id="Path_318" data-name="Path 318" d="M320.214,362.9c1.589,2.857,3.119,4.446,2.181,6.913-1.851,4.868-2.282,10.632,3.465,15.255,3.879,3.119,3.186,8.071,6.136,8.114,2.282,1.344-4.412.947-4.412.947H320.89l-4.226-.237c.051-.938-1.276-13.362-1.217-15.061.211-5.984.33-9.491-.152-12.111-.845-4.429-.6-2.764,1.31-5.865.7-1.124,2.823,1.023,3.634,2.054" transform="translate(-313.935 -336.925)"/>
        </g>
      </g>
    </g>
    <g id="Group_128" data-name="Group 128" transform="translate(5477.452 2272.189)">
      <path id="Path_319" data-name="Path 319" d="M291.874,404.666s-.068-4.031,3.9-4.226,88.4-.068,88.4-.068,3.71.439,3.837,3.465.127,47.6.127,47.6a3.448,3.448,0,0,1-3.592,3.524c-3.651.068-89.723.127-89.723.127s-3.212-.845-3.152-4.031.194-46.4.194-46.4" transform="translate(-291.679 -400.332)" fill="#fff"/>
    </g>
    <g id="Group_129" data-name="Group 129" transform="translate(5522.382 2295.928)" clip-path="url(#clip-path-4)">
      <rect id="Rectangle_78" data-name="Rectangle 78" width="7.294" height="7.294" transform="translate(0 0)" fill="url(#linear-gradient-5)"/>
    </g>
  </g>
</svg>
