<svg xmlns="http://www.w3.org/2000/svg" width="14.918" height="18.24" viewBox="0 0 14.918 18.24">
  <g id="Group_171" data-name="Group 171" transform="translate(466.542 -314.419)">
    <path id="Path_372" data-name="Path 372" d="M-438.99,415.855c0-1.534,0-3.068,0-4.6a.825.825,0,0,1,1.249-.731.846.846,0,0,1,.41.785q0,1.359,0,2.719c0,2.123.013,4.246,0,6.369a3.164,3.164,0,0,1-1.766,2.911,3.042,3.042,0,0,1-1.473.359q-3.389,0-6.777,0a3.241,3.241,0,0,1-3.242-3.231c-.007-3.042,0-6.084,0-9.127a.832.832,0,0,1,.479-.82.783.783,0,0,1,.873.1.837.837,0,0,1,.31.7q0,1.854,0,3.709,0,2.68,0,5.359a1.584,1.584,0,0,0,1.651,1.646h6.641a1.585,1.585,0,0,0,1.651-1.646Q-438.989,418.108-438.99,415.855Z" transform="translate(-15.12 -91.01)" fill="#ff6060"/>
    <path id="Path_373" data-name="Path 373" d="M-451.626,317.684a.834.834,0,0,0-.879-.777q-1.544-.005-3.087,0c-.144,0-.186-.033-.183-.181.01-.472.006-.945,0-1.417a.826.826,0,0,0-.881-.89q-2.427,0-4.854,0a.826.826,0,0,0-.887.883c0,.466-.011.932,0,1.4.006.18-.053.209-.216.208-1.016-.007-2.032-.005-3.048,0a.843.843,0,0,0-.843.562.828.828,0,0,0,.819,1.1q3.291,0,6.582,0h3.708c.971,0,1.942,0,2.912,0A.827.827,0,0,0-451.626,317.684Zm-5.837-.813c-.115.1-.393.033-.6.035-.343,0-.686,0-1.029,0-.5,0-1,0-1.494,0-.131,0-.171-.038-.159-.164.019-.217-.092-.509.043-.631.119-.108.405-.033.618-.033.828,0,1.656,0,2.484,0,.146,0,.2.034.18.181C-457.442,316.468-457.331,316.75-457.463,316.871Z" fill="#ff6060"/>
    <path id="Path_374" data-name="Path 374" d="M-370.512,446.184c0-.971,0-1.941,0-2.912a.822.822,0,0,1,.681-.806.835.835,0,0,1,.9.467.969.969,0,0,1,.081.415q0,2.835,0,5.669a.834.834,0,0,1-.841.895.833.833,0,0,1-.819-.894Q-370.514,447.6-370.512,446.184Z" transform="translate(-91.056 -121.403)" fill="#ff6060"/>
    <path id="Path_375" data-name="Path 375" d="M-304.91,446.214c0,.964,0,1.929,0,2.893a.827.827,0,0,1-.706.824.833.833,0,0,1-.9-.549.975.975,0,0,1-.051-.324q0-2.854,0-5.708a.829.829,0,0,1,.653-.85.827.827,0,0,1,.913.429.955.955,0,0,1,.094.45C-304.911,444.324-304.91,445.269-304.91,446.214Z" transform="translate(-151.686 -121.428)" fill="#ff6060"/>
  </g>
</svg>
