<svg xmlns="http://www.w3.org/2000/svg" width="18.147" height="24" viewBox="0 0 18.147 24">
  <g id="Group_2" data-name="Group 2" transform="translate(412.491 -220.79)">
    <path id="Path_2" data-name="Path 2" d="M-394.345,232.041a2.118,2.118,0,0,0-.026-.35,2.364,2.364,0,0,0-2.452-1.973c-.578.022-.513.049-.523-.508a28.918,28.918,0,0,0-.047-3.089,5.968,5.968,0,0,0-3.67-4.922,4.673,4.673,0,0,0-1.787-.409h-1.172c-.314.053-.634.046-.944.13a6.1,6.1,0,0,0-4.514,5.9c0,.781,0,1.562,0,2.343,0,.624.077.556-.568.557a2.33,2.33,0,0,0-2.431,2.435c0,3.421.016,6.842-.01,10.263a2.335,2.335,0,0,0,1.952,2.37h14.156a2.586,2.586,0,0,0,.657-.136,2.276,2.276,0,0,0,1.376-2.164C-394.34,239.007-394.345,235.524-394.345,232.041Zm-7.879,5.337a.429.429,0,0,0-.2.4c.007.695.013,1.39,0,2.084a.979.979,0,0,1-.988.929.99.99,0,0,1-.99-.929c-.013-.249-.005-.5-.006-.749v-.351c0-.148-.008-.3,0-.444a1.3,1.3,0,0,0-.443-1.189,1.915,1.915,0,0,1,.121-2.842,2,2,0,0,1,2.86.235A1.969,1.969,0,0,1-402.224,237.377Zm2.6-7.583c-1.266-.009-2.531,0-3.8,0s-2.516,0-3.773,0c-.174,0-.219-.038-.217-.215.01-.914,0-1.828.006-2.742a3.993,3.993,0,0,1,3.491-4.018,4.019,4.019,0,0,1,4.446,3.293,11.326,11.326,0,0,1,.053,1.614c.007.617-.005,1.234.006,1.851C-399.41,229.75-399.45,229.8-399.628,229.795Z" transform="translate(0 0)" fill="#0dc3f8"/>
  </g>
</svg>
