<svg xmlns="http://www.w3.org/2000/svg" width="167.562" height="71.067" viewBox="0 0 167.562 71.067">
  <g id="Group_12" data-name="Group 12" transform="translate(874.625 788.392)">
    <g id="Group_9" data-name="Group 9">
      <g id="Group_3" data-name="Group 3">
        <path id="Path_4" data-name="Path 4" d="M-821.464-733.1h-6.07v-42.153h9.8a37.186,37.186,0,0,1,6.294.406,11.525,11.525,0,0,1,3.773,1.356,11.149,11.149,0,0,1,4.2,4.383,12.647,12.647,0,0,1,1.563,6.177,11.8,11.8,0,0,1-3.967,9.35q-3.96,3.486-10.732,3.486h-4.86Zm0-22.6h4.43c3.139,0,5.415-.545,6.836-1.652s2.121-2.839,2.121-5.242a6.427,6.427,0,0,0-2.156-5.325q-2.148-1.734-6.6-1.739h-4.633Z" fill="#1a1818"/>
        <path id="Path_5" data-name="Path 5" d="M-796.749-733.1v-42.153h5.7V-733.1Z" fill="#1a1818"/>
        <path id="Path_6" data-name="Path 6" d="M-779.36-746.871a10.716,10.716,0,0,0,3.586,6.454,10.114,10.114,0,0,0,6.816,2.471,9.991,9.991,0,0,0,5.151-1.365,9.968,9.968,0,0,0,3.7-3.86h6.453a18.2,18.2,0,0,1-6.137,8.111,15.466,15.466,0,0,1-9.182,2.808,16.345,16.345,0,0,1-6.454-1.241,16,16,0,0,1-5.287-3.729,17.084,17.084,0,0,1-3.485-5.459,16.74,16.74,0,0,1-1.256-6.345,17.167,17.167,0,0,1,1.137-6.277,16.677,16.677,0,0,1,3.381-5.317,15.931,15.931,0,0,1,5.345-3.927,16.064,16.064,0,0,1,6.524-1.309,16.07,16.07,0,0,1,7.786,1.955,16.458,16.458,0,0,1,5.948,5.454,16.2,16.2,0,0,1,2.058,4.76,23.863,23.863,0,0,1,.669,5.92v.9ZM-758.87-752a11.493,11.493,0,0,0-3.7-6.091,9.611,9.611,0,0,0-6.3-2.169,10.058,10.058,0,0,0-6.512,2.218,11.3,11.3,0,0,0-3.8,6.042Z" fill="#1a1818"/>
        <path id="Path_7" data-name="Path 7" d="M-729.592-733.1l-7.356-12.028-7.707,12.028H-751l10.774-16.509L-749.77-764.9h6.415l6.638,10.892,6.788-10.892h6.644l-10.094,15.092,10.2,16.706Z" fill="#1a1818"/>
      </g>
      <g id="Group_8" data-name="Group 8">
        <g id="Group_5" data-name="Group 5">
          <g id="Group_4" data-name="Group 4">
            <path id="Path_8" data-name="Path 8" d="M-860.229-737.184a4.342,4.342,0,0,1-3.881-2.287h0q-.934-1.935,1.636-5.058h0a36.7,36.7,0,0,1,4.766-4.53h0a18.938,18.938,0,0,1-9.247-2.3h0a14.732,14.732,0,0,1-6.223-6.506h0c-2.085-4.279-1.91-8.3.477-12.067h0c2.138-3.5,5.681-6.176,10.626-8.064h0a27.243,27.243,0,0,1,7.813-1.759h0a19.038,19.038,0,0,1,5.949.343h0a11.459,11.459,0,0,1,2.461-4.115h0a10.26,10.26,0,0,1,3.691-2.443h0a6.171,6.171,0,0,1,3.084-.355h0a2.99,2.99,0,0,1,2.416,1.388h0a2.9,2.9,0,0,1,.391,2.366h0a2.258,2.258,0,0,1-1.592,1.752h0a4.748,4.748,0,0,1-1.773.311h0c-.374.016-.916,0-1.633-.031h0a6.949,6.949,0,0,0-2.33.044h0a3.675,3.675,0,0,0-2.092,1.937h0a22.336,22.336,0,0,1,4.609,2.808h0a14.884,14.884,0,0,1,3.43,4.008h0a11.481,11.481,0,0,1,.309,11.909h0c-1.972,3.792-5.42,6.717-10.352,8.739h0a18.525,18.525,0,0,1-2.912.977h0a30.735,30.735,0,0,1-4.057.908h0a14.33,14.33,0,0,0-3.185,2.713h0c-.745.957-.979,1.717-.707,2.262h0a3.164,3.164,0,0,0,1.494,1.482h0a8.415,8.415,0,0,0,4.244.022h0c2.185-.453,4.5-.943,6.976-1.45h0c1.459-.378,3.694-.912,6.714-1.587h0l5.574-1.339h0a27.58,27.58,0,0,1,10.938-.745h0a10.544,10.544,0,0,1,7.714,5.1h0c2.223,3.755,1.533,7.579-2.133,11.471h0c-3.1,3.391-6.238,5.806-13.174,9.361h0c-16.22,8.292-29.474,3.488-31.09.1h0s9.854,7.256,29.506-2.488h0a31.086,31.086,0,0,0,10-7.491h0c2.476-2.8,3.175-5.09,2.146-6.861h0a6.809,6.809,0,0,0-4.817-3.172h0a21.086,21.086,0,0,0-9.145.4h0l-11.193,2.479h0S-854.8-736.749-860.229-737.184Zm-7.408-32.123a11.918,11.918,0,0,0,1.162,8.828h0a14.642,14.642,0,0,0,6.876,6.9h0a12.586,12.586,0,0,0,10.705.277h0a9.968,9.968,0,0,0,6.444-7.188h0a12.087,12.087,0,0,0-1.521-8.869h0a14.414,14.414,0,0,0-6.969-6.4h0a12.722,12.722,0,0,0-10.067-.251h0C-864.538-774.657-866.753-772.433-867.637-769.307Z" fill="#1a1818"/>
          </g>
        </g>
        <g id="Group_7" data-name="Group 7">
          <g id="Group_6" data-name="Group 6">
            <path id="Path_9" data-name="Path 9" d="M-859.3-739.2a4.353,4.353,0,0,1-3.884-2.284h0q-.944-1.937,1.637-5.062h0a36.831,36.831,0,0,1,4.769-4.53h0a19,19,0,0,1-9.252-2.3h0a14.832,14.832,0,0,1-6.23-6.51h0c-2.077-4.279-1.9-8.292.484-12.064h0q3.215-5.247,10.636-8.068h0a26.925,26.925,0,0,1,7.807-1.754h0a18.542,18.542,0,0,1,5.953.353h0a11.278,11.278,0,0,1,2.456-4.12h0a10.215,10.215,0,0,1,3.7-2.449h0a6.234,6.234,0,0,1,3.082-.355h0a2.988,2.988,0,0,1,2.41,1.388h0a2.845,2.845,0,0,1,.4,2.372h0a2.254,2.254,0,0,1-1.594,1.749h0a4.546,4.546,0,0,1-1.767.3h0a14.4,14.4,0,0,1-1.628-.029h0a7.347,7.347,0,0,0-2.343.052h0a3.73,3.73,0,0,0-2.092,1.941h0a22.317,22.317,0,0,1,4.621,2.8h0a15.144,15.144,0,0,1,3.427,4.007h0a11.5,11.5,0,0,1,.309,11.908h0q-2.95,5.7-10.351,8.743h0a20.371,20.371,0,0,1-2.917.974h0a31.147,31.147,0,0,1-4.064.915h0a14.509,14.509,0,0,0-3.178,2.7h0c-.748.97-.982,1.723-.714,2.274h0a3.251,3.251,0,0,0,1.5,1.481h0a8.473,8.473,0,0,0,4.255.021h0c2.18-.454,4.5-.943,6.968-1.442h0q2.175-.583,6.718-1.6h0l5.574-1.341h0a27.749,27.749,0,0,1,10.934-.752h0a10.547,10.547,0,0,1,7.713,5.108h0c2.234,3.762,1.545,7.579-2.13,11.47h0c-3.1,3.393-6.239,5.808-13.179,9.362h0c-16.207,8.29-29.471,3.5-31.086.1h0s9.857,7.258,29.51-2.491h0a31.219,31.219,0,0,0,9.99-7.489h0c2.479-2.8,3.181-5.076,2.156-6.858h0a6.79,6.79,0,0,0-4.82-3.174h0a21.225,21.225,0,0,0-9.15.395h0l-11.192,2.48h0S-853.879-738.763-859.3-739.2Zm-7.406-32.129a11.918,11.918,0,0,0,1.156,8.836h0a14.674,14.674,0,0,0,6.874,6.892h0a12.655,12.655,0,0,0,10.714.287h0a10.007,10.007,0,0,0,6.452-7.2h0a12.1,12.1,0,0,0-1.532-8.862h0a14.5,14.5,0,0,0-6.965-6.408h0a12.792,12.792,0,0,0-10.077-.245h0C-863.608-776.668-865.827-774.449-866.71-771.324Z" fill="#d60018"/>
          </g>
        </g>
      </g>
    </g>
    <g id="Group_11" data-name="Group 11">
      <g id="Group_10" data-name="Group 10">
        <path id="Path_10" data-name="Path 10" d="M-716.45-769.9v-7.541h3.344a4.528,4.528,0,0,1,1.534.2,1.706,1.706,0,0,1,.839.718,2.175,2.175,0,0,1,.31,1.141,1.893,1.893,0,0,1-.515,1.353,2.649,2.649,0,0,1-1.61.7,2.6,2.6,0,0,1,.6.374,5.182,5.182,0,0,1,.828,1l1.3,2.045h-1.246l-1-1.564c-.291-.452-.532-.8-.719-1.036a2.337,2.337,0,0,0-.508-.506,1.472,1.472,0,0,0-.457-.2,2.664,2.664,0,0,0-.555-.04h-1.156v3.345Zm1-4.208h2.147a3.28,3.28,0,0,0,1.07-.137,1.169,1.169,0,0,0,.591-.456,1.223,1.223,0,0,0,.2-.676,1.122,1.122,0,0,0-.389-.881,1.843,1.843,0,0,0-1.233-.345h-2.386Z" fill="#1a1818"/>
      </g>
      <path id="Path_11" data-name="Path 11" d="M-719.2-773.67a6.074,6.074,0,0,0,6.066,6.068,6.075,6.075,0,0,0,6.068-6.068,6.074,6.074,0,0,0-6.068-6.066A6.073,6.073,0,0,0-719.2-773.67Zm.411,0a5.663,5.663,0,0,1,5.655-5.656,5.664,5.664,0,0,1,5.657,5.656,5.664,5.664,0,0,1-5.657,5.657A5.663,5.663,0,0,1-718.786-773.67Z" fill="#1a1818"/>
    </g>
  </g>
</svg>
