<svg xmlns="http://www.w3.org/2000/svg" width="19.819" height="18.24" viewBox="0 0 19.819 18.24">
  <g id="Group_180" data-name="Group 180" transform="translate(1010.332 -257.085)">
    <path id="Path_379" data-name="Path 379" d="M-970.474,271.5v-.416a3.529,3.529,0,0,0,.094-1.392c0-.084-.082-.141-.095-.224v-.4a.965.965,0,0,0,.108-.549.7.7,0,0,1,.051-.4.634.634,0,0,1,.462-.2c.1,0,.206,0,.31,0h11.354a2.761,2.761,0,0,1,.958.093c.093.007.1.08.109.148a1.306,1.306,0,0,1,.005.186c0,2.1,0,4.2,0,6.3a.586.586,0,0,1-.283.547q-1.709,1.158-3.413,2.323c-.37.252-.743.5-1.105.761a.687.687,0,0,1-.422.136q-1.4,0-2.808,0a.7.7,0,0,1-.407-.12q-2.325-1.573-4.64-3.161a.414.414,0,0,1-.176-.389c0-.874,0-1.748,0-2.622A1.258,1.258,0,0,0-970.474,271.5Z" transform="translate(-37.657 -10.242)" fill="#fff"/>
    <path id="Path_380" data-name="Path 380" d="M-1007.97,257.918c0,.218-.01.436-.01.654,0,.119-.026.217-.152.258-.135-.018-.182-.1-.18-.23,0-.22,0-.44,0-.66a.813.813,0,0,1,.876-.855q3.323,0,6.646,0h5.3a.857.857,0,0,1,.976.668.468.468,0,0,1,.069.334c0,1.228.006,2.455,0,3.683a.481.481,0,0,0,.289.508.628.628,0,0,1,.315.254c.368.223.73.456,1.106.666a.4.4,0,0,1,.257.417.652.652,0,0,1,.064.38c0,1.771.005,3.543-.005,5.314,0,.261.061.433.319.519a.485.485,0,0,1,.283.228,3.762,3.762,0,0,1,.816.832,1.184,1.184,0,0,1,.324.587,2.888,2.888,0,0,1-2.026,3.754,2.779,2.779,0,0,1-2.076-.251.385.385,0,0,1-.171-.143,3.664,3.664,0,0,1-.862-.86.7.7,0,0,1-.268-.381.289.289,0,0,0-.315-.208c-.082,0-.165,0-.247,0q-6.31,0-12.62,0c-.134,0-.278.032-.4-.069-.137,0-.274-.015-.411-.012-.177,0-.278-.06-.258-.253a.807.807,0,0,0,0-.082q0-4.673-.005-9.347a.422.422,0,0,1,.245-.421c.554-.317,1.1-.655,1.647-.978a.223.223,0,0,0,.13-.23c-.008-.158,0-.316,0-.474a.215.215,0,0,1,.182-.255c.141.058.153.174.152.306,0,.991,0,1.982,0,2.972a.317.317,0,0,0,.156.3q2.33,1.58,4.652,3.171a.6.6,0,0,0,.362.109q1.414-.007,2.828,0a.54.54,0,0,0,.326-.095q2.331-1.6,4.668-3.184a.318.318,0,0,0,.161-.3q-.008-3.282,0-6.564c0-.067.017-.138-.032-.2a.9.9,0,0,0-.825-.3q-5.725.01-11.451,0h-.268a.467.467,0,0,0-.487.307A.618.618,0,0,1-1007.97,257.918Z"/>
    <path id="Path_381" data-name="Path 381" d="M-973.585,295.969a.218.218,0,0,1,.152.239c0,.378,0,.755,0,1.133a.243.243,0,0,1-.152.244c-.139-.029-.184-.117-.182-.254.005-.371,0-.741,0-1.112C-973.768,296.087-973.734,295.989-973.585,295.969Z" transform="translate(-34.547 -36.738)"/>
    <path id="Path_382" data-name="Path 382" d="M-967.533,263.576a.469.469,0,0,1,.479-.5c.041,0,.083,0,.124,0h11.919c.356,0,.494.088.582.367-.019.041.02.157-.095.072a.768.768,0,0,0-.492-.106q-5.918,0-11.835,0A1.076,1.076,0,0,0-967.533,263.576Z" transform="translate(-40.437 -5.657)" fill="#fefefe"/>
    <path id="Path_383" data-name="Path 383" d="M-932.006,306.194h-4.539a1.171,1.171,0,0,1-.185,0,.147.147,0,0,1-.132-.137.15.15,0,0,1,.114-.173.784.784,0,0,1,.2-.014h9.1c.048,0,.1,0,.144,0a.164.164,0,0,1,.174.167.155.155,0,0,1-.175.161h-4.7Z" transform="translate(-69.413 -46.086)"/>
    <path id="Path_384" data-name="Path 384" d="M-932,336.109h-4.539c-.055,0-.11,0-.165,0a.149.149,0,0,1-.149-.142.157.157,0,0,1,.135-.178.715.715,0,0,1,.164-.007h9.14c.041,0,.083,0,.124,0,.1.009.174.067.171.169a.156.156,0,0,1-.177.159c-.083,0-.165,0-.248,0Z" transform="translate(-69.42 -74.35)"/>
    <path id="Path_385" data-name="Path 385" d="M-932.008,366.05h-4.539a1.144,1.144,0,0,1-.185-.005.147.147,0,0,1-.131-.138.15.15,0,0,1,.115-.173.8.8,0,0,1,.2-.014h9.1c.048,0,.1,0,.144,0a.164.164,0,0,1,.173.168.155.155,0,0,1-.176.16h-4.7Z" transform="translate(-69.413 -102.639)"/>
    <path id="Path_386" data-name="Path 386" d="M-931.983,395.97h-4.539c-.055,0-.11,0-.165,0a.15.15,0,0,1-.155-.158.157.157,0,0,1,.15-.166,1.006,1.006,0,0,1,.165,0h9.1c.027,0,.055,0,.083,0,.122-.005.235.027.237.166s-.109.166-.232.166c-.75,0-1.5,0-2.249,0Z" transform="translate(-69.433 -130.907)"/>
    <path id="Path_387" data-name="Path 387" d="M-996.638,467.469c.187-.129.365-.253.544-.375q2.94-2,5.879-4.009a.54.54,0,0,1,.324-.1q1.424.006,2.848,0a.509.509,0,0,1,.306.093q1.8,1.23,3.6,2.452c.116.078.127.135.07.261a2.554,2.554,0,0,0-.229,1.485c.031.195-.028.24-.22.24q-6.449-.008-12.9-.005A.287.287,0,0,1-996.638,467.469Z" transform="translate(-12.938 -194.532)" fill="#fff"/>
    <path id="Path_388" data-name="Path 388" d="M-1004.006,378.2l1.934,1.318,4.516,3.079c.092.063.218.1.03.23q-3.167,2.147-6.326,4.306c-.042.029-.078.081-.154.067Z" transform="translate(-5.977 -114.43)" fill="#fff"/>
    <path id="Path_389" data-name="Path 389" d="M-806.749,377.946v2.881c0,.936,0,1.872,0,2.807,0,.141-.02.184-.178.163a2.79,2.79,0,0,0-2.7,1.107c-.065.081-.1.078-.18.025-1.186-.812-2.373-1.621-3.588-2.45Z" transform="translate(-186.067 -114.191)" fill="#fff"/>
    <path id="Path_390" data-name="Path 390" d="M-744.547,491.752a2.51,2.51,0,0,1-2.538,2.5,2.53,2.53,0,0,1-2.5-2.523,2.545,2.545,0,0,1,2.536-2.514A2.524,2.524,0,0,1-744.547,491.752Z" transform="translate(-246.357 -219.315)" fill="#f9759d"/>
    <path id="Path_391" data-name="Path 391" d="M-999.343,355.811v1.917c-.048.038-.079,0-.11-.024-.431-.292-.86-.588-1.293-.878-.1-.065-.137-.1-.008-.178C-1000.292,356.379-999.834,356.1-999.343,355.811Z" transform="translate(-8.973 -93.278)" fill="#fff"/>
    <path id="Path_392" data-name="Path 392" d="M-723.205,355.912l1.523.914-1.523,1.041Z" transform="translate(-271.28 -93.373)" fill="#fff"/>
    <path id="Path_393" data-name="Path 393" d="M-716.828,512.854a1.817,1.817,0,0,1-.29,1,.6.6,0,0,1-1,.055,1.24,1.24,0,0,1-.3-.688,1.815,1.815,0,0,1,.211-1.29.622.622,0,0,1,1.12-.01A1.878,1.878,0,0,1-716.828,512.854Z" transform="translate(-275.776 -240.447)" fill="#f9759d"/>
  </g>
</svg>
