<svg xmlns="http://www.w3.org/2000/svg" width="159.77" height="342.394" viewBox="0 0 159.77 342.394">
  <g id="Group_179" data-name="Group 179" opacity="0.15">
    <path id="Path_359" data-name="Path 359" d="M74.36,219.832c-5.529-20.377-3.629-42.6-1-63.818.091-.754.188-1.507.28-2.267.528-4.156,1.061-8.339,1.556-12.528.845-7.2,1.577-14.423,1.922-21.626.646-13.33-.022-26.563-3.682-39.365-5.529-19.333-17.6-36.216-32.259-50.1q-1.292-1.228-2.606-2.412c-.958-.878-1.933-1.734-2.913-2.584C24.63,15.613,12.5,7.537,0,0V273.416a2.693,2.693,0,0,0,2.692,2.692H108.729c-10.224-14.961-23.1-28.3-30.369-44.873A81.19,81.19,0,0,1,74.36,219.832Z" transform="translate(0 66.286)" fill="#0073e1" opacity="0.35"/>
    <path id="Path_360" data-name="Path 360" d="M149.591,281.235c-11.23-19.408-29.034-33.88-46.585-48.453-9.5-7.882-19.134-16.054-27.807-25.276q-2.891-3.069-5.626-6.3a118.018,118.018,0,0,1-14.337-21.023c-10.864-20.6-15.031-45.158-16.248-70.65-.248-5.147-.377-10.326-.415-15.526-.021-2.886-.011-5.771.016-8.662.194-19.268,1.141-39.764-5.787-57.9C27,12.293,13.61-.186,0,0V339.7a2.693,2.693,0,0,0,2.692,2.692H154.329C163.772,323.018,160.111,299.427,149.591,281.235Z" fill="#0dc3f8" opacity="0.4"/>
  </g>
</svg>
