<svg xmlns="http://www.w3.org/2000/svg" width="255.245" height="547" viewBox="0 0 255.245 547">
  <g id="Group_178" data-name="Group 178" opacity="0.15">
    <path id="Path_359" data-name="Path 359" d="M-1495.212,571.915c8.833,32.554,5.8,68.05,1.591,101.954-.146,1.2-.3,2.408-.447,3.621-.843,6.64-1.694,13.323-2.486,20.014-1.35,11.5-2.52,23.042-3.07,34.55-1.032,21.3.034,42.437,5.883,62.889,8.833,30.886,28.125,57.858,51.536,80.031q2.064,1.961,4.163,3.853c1.531,1.4,3.088,2.769,4.653,4.128,17.623,15.215,37.009,28.116,56.972,40.157V486.31a4.3,4.3,0,0,0-4.3-4.3h-169.4c16.333,23.9,36.9,45.206,48.517,71.688A129.7,129.7,0,0,1-1495.212,571.915Z" transform="translate(1631.663 -482.01)" fill="#0073e1" opacity="0.35"/>
    <path id="Path_360" data-name="Path 360" d="M-1533.858,579.716c17.941,31.006,46.384,54.125,74.423,77.408,15.172,12.592,30.567,25.648,44.423,40.381q4.619,4.9,8.988,10.063a188.533,188.533,0,0,1,22.9,33.586c17.356,32.907,24.014,72.144,25.957,112.869.4,8.222.6,16.5.662,24.8.034,4.61.017,9.22-.026,13.839-.31,30.782-1.823,63.526,9.246,92.494,9.263,24.211,30.662,44.148,52.405,43.847V486.31a4.3,4.3,0,0,0-4.3-4.3h-242.251C-1556.513,512.964-1550.664,550.653-1533.858,579.716Z" transform="translate(1550.12 -482.01)" fill="#0dc3f8" opacity="0.4"/>
  </g>
</svg>
