<svg xmlns="http://www.w3.org/2000/svg" width="296.767" height="635.984" viewBox="0 0 296.767 635.984">
  <g id="Group_165" data-name="Group 165" transform="translate(1550.12 -482.01)" opacity="0.2">
    <path id="Path_359" data-name="Path 359" d="M-1412,586.54c-10.27,37.85-6.74,79.12-1.85,118.54.17,1.4.35,2.8.52,4.21.98,7.72,1.97,15.49,2.89,23.27,1.57,13.37,2.93,26.79,3.57,40.17,1.2,24.76-.04,49.34-6.84,73.12-10.27,35.91-32.7,67.27-59.92,93.05q-2.4,2.28-4.84,4.48c-1.78,1.63-3.59,3.22-5.41,4.8-20.49,17.69-43.03,32.69-66.24,46.69V487.01a5,5,0,0,1,5-5h196.96c-18.99,27.79-42.9,52.56-56.41,83.35A150.8,150.8,0,0,0-1412,586.54Z" fill="#0073e1" opacity="0.35"/>
    <path id="Path_360" data-name="Path 360" d="M-1272.26,595.61c-20.86,36.05-53.93,62.93-86.53,90-17.64,14.64-35.54,29.82-51.65,46.95q-5.37,5.7-10.45,11.7a219.214,219.214,0,0,0-26.63,39.05c-20.18,38.26-27.92,83.88-30.18,131.23-.46,9.56-.7,19.18-.77,28.84-.04,5.36-.02,10.72.03,16.09.36,35.79,2.12,73.86-10.75,107.54-10.77,28.15-35.65,51.33-60.93,50.98V487.01a5,5,0,0,1,5-5h281.66C-1245.92,518-1252.72,561.82-1272.26,595.61Z" fill="#0dc3f8" opacity="0.4"/>
  </g>
</svg>
